<?xml version="1.0" encoding="UTF-8" standalone="no"?>
<!DOCTYPE svg PUBLIC "-//W3C//DTD SVG 1.1//EN" "http://www.w3.org/Graphics/SVG/1.1/DTD/svg11.dtd">
<svg width="100%" height="100%" viewBox="0 0 1000 1000" version="1.1" xmlns="http://www.w3.org/2000/svg" xmlns:xlink="http://www.w3.org/1999/xlink" xml:space="preserve" xmlns:serif="http://www.serif.com/" style="fill-rule:evenodd;clip-rule:evenodd;stroke-linecap:round;stroke-linejoin:round;stroke-miterlimit:1.5;">
    <g transform="matrix(0.15,0,0,0.15,500,500)">
        <g transform="matrix(1,0,0,1,-3333.333333,-3333.333333)">
            <g transform="matrix(1,0,0,1,-166.641978,-179.120667)">
                <g transform="matrix(4.166667,0,0,4.166667,0,0)">
                    <path d="M1031.328,686.715C1051.563,679.286 1077.991,700.494 1090.308,734.044C1102.625,767.594 1096.196,800.864 1075.961,808.292C1055.726,815.721 1029.298,794.513 1016.981,760.963C1004.664,727.413 1011.093,694.143 1031.328,686.715ZM1052.928,709.171C1046.984,711.353 1044.731,720.135 1047.901,728.769C1051.071,737.403 1058.47,742.642 1064.414,740.459C1070.358,738.277 1072.611,729.495 1069.441,720.861C1066.271,712.227 1058.872,706.988 1052.928,709.171Z" style="fill:rgb(45,80,22);stroke:rgb(45,80,22);stroke-width:4.17px;"/>
                </g>
                <g transform="matrix(4.166667,0,0,4.166667,0,0)">
                    <path d="M837.022,1189.854C837.022,1189.854 1025.085,1188.794 1052.392,1237.556C1052.392,1237.556 1079.699,1303.278 985.355,1348.86C985.355,1348.86 827.409,1431.543 655.683,1330.839C655.683,1330.839 593.734,1267.237 635.839,1226.955C635.839,1226.955 637.808,1189.854 837.023,1189.854L837.022,1189.854Z" style="fill:rgb(45,80,22);stroke:rgb(45,80,22);stroke-width:3.13px;"/>
                </g>
                <g transform="matrix(4.166667,0,0,4.166667,0,0)">
                    <path d="M656.566,686.459C677.448,693.397 685.114,726.985 673.674,761.418C662.234,795.851 635.992,818.174 615.11,811.236C594.228,804.298 586.562,770.71 598.002,736.277C609.442,701.844 635.684,679.521 656.566,686.459ZM656.768,708.317C650.788,706.33 643.361,712.455 640.195,721.987C637.028,731.519 639.312,740.87 645.293,742.857C651.273,744.844 658.7,738.719 661.866,729.187C665.033,719.655 662.749,710.304 656.768,708.317Z" style="fill:rgb(45,80,22);stroke:rgb(45,80,22);stroke-width:4.17px;"/>
                </g>
                <g transform="matrix(4.166667,0,0,4.166667,0,0)">
                    <path d="M1397.18,646.292C1432.689,782.164 1412.012,889.619 1412.012,889.619C1363.979,1182.787 1098.236,1302.91 1098.236,1302.91C1098.054,1305.478 1098.04,1308.042 1097.532,1310.494C1060.646,1488.519 827.212,1464.343 827.212,1464.343C602.812,1475.773 570.08,1291.106 570.08,1291.106C256.672,1138.817 256.274,836.121 256.274,836.121C252.718,765.32 262.355,701.329 277.298,646.789C206.063,614.564 182.316,557.667 182.316,557.667C98.361,390.605 222.442,294.772 222.442,294.772C346.354,188.084 479.463,337.247 479.463,337.247C479.463,337.247 612.434,222.593 837.021,220.558C1061.608,218.523 1197.237,336.569 1197.237,336.569C1369.557,160.178 1486.925,332.498 1486.925,332.498C1613.911,520.862 1397.179,646.293 1397.179,646.293L1397.18,646.292ZM1387.63,613.458C1437.834,605.317 1562.186,435.128 1433.184,328.615C1304.182,222.102 1204.656,384.924 1204.656,384.924C1083.218,264.843 870.192,253.988 870.192,253.988C619.853,239.741 467.207,382.889 467.207,382.889C425.823,316.403 371.549,298.086 371.549,298.086C221.617,261.451 191.088,408.669 191.088,408.669C168.022,573.527 288.146,611.313 288.146,611.313C321.68,512.059 369.035,452.186 369.035,452.186C312.416,332.349 240.861,395.567 240.861,395.567C323.025,273.259 407.048,455.46 407.048,455.46C280.861,619.639 290.493,829.777 290.493,829.777C317.911,1139.271 564.577,1256.453 564.577,1256.453C483.844,1019.628 494.021,860.93 494.021,860.93C512.675,509.126 839.923,511.54 839.923,511.54C1163.437,510.522 1189.991,844.647 1189.991,844.647C1213.057,956.587 1117.715,1258.581 1117.715,1258.581C1310.388,1152.068 1369.411,927.692 1369.411,927.692C1431.826,637.509 1268.325,454.15 1268.325,454.15C1373.481,271.653 1433.183,393.77 1433.183,393.77C1347.701,338.817 1307.674,452.189 1307.674,452.189C1345.588,506.297 1370.92,561.409 1387.629,613.456L1387.63,613.458ZM837.022,540.054C672.71,531.918 577.215,684.688 577.215,684.688C440.539,867.047 579.202,1213.295 585.978,1257.221C614.921,1444.851 810.004,1437.283 810.004,1437.283C994.467,1443.489 1043.973,1370.244 1043.973,1370.244C1086.724,1354.971 1176.129,904.272 1166.599,892.835C1141.964,526.052 837.023,540.053 837.023,540.053L837.022,540.054Z" style="fill:rgb(45,80,22);stroke:rgb(45,80,22);stroke-width:3.13px;"/>
                </g>
            </g>
        </g>
    </g>
</svg>
